<svg width="76" height="50" viewBox="0 0 76 50" fill="black" xmlns="http://www.w3.org/2000/svg">
<path class="logo" fill-rule="evenodd" clip-rule="evenodd" d="M7.94119 0.351902C7.05767 0.938503 6.99747 1.24344 6.99747 5.13041V8.59886L16.277 8.67111L25.5566 8.74337L26.0969 9.27145C26.5463 9.71049 26.65 9.9277 26.7121 10.5588C26.804 11.4926 26.4885 12.1464 25.7211 12.6127L25.1915 12.9344L16.0575 12.9747L6.92351 13.0152V10.8431V8.67111L5.77714 8.67169C4.9019 8.67213 4.51894 8.73875 4.15802 8.95379C2.80559 9.75948 2.74288 11.5447 4.03317 12.5062C4.49498 12.8503 4.75176 12.921 5.74608 12.9772L6.91582 13.0434L6.95665 15.1567L6.99747 17.27L15.4635 17.3422L23.9295 17.4145L24.4735 17.946C24.9389 18.4008 25.0273 18.5929 25.0852 19.2742C25.1399 19.92 25.0906 20.1687 24.825 20.5887C24.1592 21.6414 24.5263 21.6008 15.244 21.6463L6.92351 21.687V19.5146V17.3422H4.2089C1.63289 17.3422 1.46855 17.359 0.991663 17.6703C-0.359133 18.5519 -0.324816 20.294 1.06326 21.3075C1.43438 21.5785 1.71809 21.6099 4.19367 21.6531L6.91582 21.7006L6.95665 31.9139L6.99747 42.1272L7.33266 42.6538C7.80008 43.3882 8.43687 43.6446 9.79329 43.6446H10.9173V42.3671C10.9173 40.0522 11.8023 37.6072 13.3614 35.6152C14.9749 33.5533 17.3758 32.0401 20.0229 31.4163C21.5163 31.0644 24.1126 31.1004 25.6353 31.4942C30.7435 32.815 34.295 37.1621 34.4861 42.3276L34.5375 43.7169H41.4023H48.2669L48.3043 21.8584L48.3417 0H28.4065H8.47134L7.94119 0.351902ZM52.7784 17.848V24.2791H63.6114H74.4443L72.5885 22.4365C71.5677 21.4231 68.7491 18.5952 66.325 16.1524C62.79 12.5902 61.8109 11.682 61.3787 11.5648C61.0765 11.4827 59.071 11.4183 56.8092 11.4178L52.7784 11.417V17.848ZM52.7784 31.6617V34.7087L53.6777 33.9136C55.2762 32.5003 57.7069 31.4727 60.0704 31.2111C64.5664 30.7135 69.1789 32.9689 71.4726 36.7865C72.5454 38.5724 73.2906 41.353 73.1705 43.1226L73.1303 43.7169L73.6362 43.676C74.2682 43.625 74.9154 43.2618 75.3205 42.731C75.6254 42.3317 75.6328 42.1791 75.673 35.4689L75.7143 28.6147H64.2463H52.7784V31.6617ZM21.5583 35.4133C17.9055 35.951 15.207 39.0491 15.207 42.7052C15.207 44.7798 15.883 46.3582 17.4105 47.8505C19.0573 49.4596 20.697 50.0779 23.03 49.9693C24.7195 49.8907 25.5774 49.6225 26.923 48.7523C30.3388 46.5437 31.2265 41.9637 28.9021 38.5422C27.3474 36.2539 24.3944 34.9958 21.5583 35.4133ZM60.1909 35.4189C58.1223 35.6806 55.7205 37.3183 54.7227 39.1475C52.0282 44.0865 55.6017 50.0164 61.2623 50C61.925 49.9979 62.7666 49.929 63.1327 49.8466C65.0492 49.4154 67.1351 47.7974 68.0049 46.0673C70.7389 40.6294 66.3442 34.6404 60.1909 35.4189Z"/>
</svg>