<svg width="36" height="50" viewBox="0 0 36 50" fill="white" xmlns="http://www.w3.org/2000/svg">
<path class="logo" fill-rule="evenodd" clip-rule="evenodd" d="M1.95197 0.145064C1.0129 0.439394 0.289211 1.23011 0.0856123 2.18426C0.00833817 2.54624 -0.0135597 9.06334 0.00765668 25.3177L0.0373401 47.9472L0.24308 48.3939C0.500596 48.9531 1.07246 49.5247 1.64316 49.7936L2.08112 50H17.9934H33.9056L34.3522 49.7925C34.9222 49.5277 35.4791 48.9683 35.7428 48.3958L35.9494 47.9472L35.9747 29.259L36 10.5709L32.0331 10.5324C29.2783 10.5056 27.9555 10.4576 27.7037 10.375C26.9506 10.1281 26.012 9.18514 25.7658 8.42864C25.6834 8.17517 25.6358 6.8391 25.6093 4.03226L25.5711 0L13.9721 0.00654936C4.52041 0.011828 2.29513 0.0375367 1.95197 0.145064ZM28.5042 3.79277C28.5042 6.46031 28.5344 7.42033 28.621 7.50733C28.7533 7.64018 35.9007 7.68289 35.9007 7.55083C35.9007 7.45503 28.6722 0.195503 28.5767 0.195503C28.5368 0.195503 28.5042 1.81427 28.5042 3.79277ZM24.2047 14.3063L24.5626 14.6657L24.5915 17.2041L24.6206 19.7425L25.7407 20.7366C26.3953 21.3175 26.9409 21.8881 27.0533 22.1096C27.2387 22.4745 27.2449 22.6702 27.2181 27.3978L27.1904 32.3069L26.9315 32.8617C26.5689 33.6384 25.9709 34.2519 25.2093 34.6285L24.5667 34.9462H17.9954H11.4241L10.8888 34.6911C10.0951 34.3127 9.48717 33.7204 9.11628 32.9638L8.79638 32.3114L8.76864 27.4C8.74188 22.6702 8.74801 22.4746 8.93341 22.1096C9.06674 21.8471 10.0306 20.9373 12.0692 19.1498C13.6881 17.7303 15.4533 16.1796 15.992 15.7037C17.0664 14.7547 17.3998 14.565 17.9934 14.565C18.6166 14.565 18.9293 14.7553 20.3003 15.969C21.007 16.5946 21.6092 17.1066 21.6385 17.1066C21.6677 17.1066 21.6919 16.6997 21.6922 16.2023C21.6928 15.1165 21.8008 14.6777 22.1552 14.3209C22.5244 13.9491 22.7311 13.8775 23.3288 13.9147C23.7746 13.9424 23.8965 13.9969 24.2047 14.3063ZM14.8058 20.6363L11.6674 23.3841V27.5278C11.6674 32.5038 11.5301 32.0626 13.0786 32.0626H14.1005V29.0291C14.1005 25.7358 14.1272 25.5414 14.6352 25.1401C15.4184 24.5213 16.5055 24.7825 16.8867 25.6811C16.9902 25.9249 17.0201 26.6775 17.0201 29.0291V32.0626H20.4751C23.8003 32.0626 23.9373 32.0552 24.1247 31.8671C24.3132 31.6777 24.3193 31.5413 24.3193 27.5274V23.3832L21.1874 20.6359C19.4648 19.1248 18.0304 17.8886 17.9998 17.8886C17.9692 17.8886 16.5319 19.125 14.8058 20.6363ZM20.913 24.8813C21.0469 24.9186 21.2605 25.0431 21.3879 25.1579C21.8097 25.5381 21.8863 25.8904 21.8863 27.4506C21.8863 28.7985 21.8701 28.9293 21.6673 29.2287C21.3062 29.7617 20.9608 29.9619 20.4167 29.9537C19.8983 29.9459 19.5702 29.7641 19.2159 29.2883C19.0387 29.0502 19.0115 28.8508 18.983 27.5837C18.948 26.0201 19.0252 25.5779 19.3936 25.2302C19.6585 24.9804 20.3017 24.7226 20.5238 24.7774C20.604 24.7972 20.7792 24.844 20.913 24.8813ZM26.4592 37.6613C27.4401 38.1823 27.4987 39.5249 26.5677 40.1496L26.237 40.3715L18.0033 40.3711C9.95899 40.3708 9.7623 40.3663 9.45243 40.1764C8.48319 39.5829 8.52465 38.1939 9.52756 37.6613L9.94624 37.4389H17.9934H26.0405L26.4592 37.6613ZM23.5395 42.0601C24.5204 42.5811 24.579 43.9238 23.648 44.5484L23.3173 44.7703L18.0033 44.7699C12.8724 44.7696 12.6784 44.7629 12.3721 44.5753C11.4029 43.9817 11.4443 42.5928 12.4472 42.0601L12.8659 41.8377H17.9934H23.1208L23.5395 42.0601Z"/>
</svg>
