<svg width="57" height="50" viewBox="0 0 57 50" fill="white" xmlns="http://www.w3.org/2000/svg">
<path class="logo" fill-rule="evenodd" clip-rule="evenodd" d="M47.7914 0.17089C47.608 0.269033 47.1565 0.629707 46.7881 0.972264C44.2769 3.30747 40.4955 6.12673 37.224 8.10249C32.5981 10.8962 27.8323 12.7058 23.9225 13.153L23.2834 13.2262V23.3246V33.423L23.9225 33.4966C28.5681 34.0313 34.2738 36.44 39.7888 40.1946C42.2798 41.8905 45.0602 44.0683 46.7884 45.6774C47.562 46.3978 48.0294 46.6656 48.5128 46.6656C49.0653 46.6656 49.7056 46.2728 49.9573 45.7793C50.1793 45.344 50.1811 45.1704 50.1811 23.3246C50.1811 1.47876 50.1793 1.30515 49.9573 0.869897C49.5653 0.101645 48.5396 -0.229352 47.7914 0.17089ZM8.14887 13.4955C4.36462 14.1801 1.28984 17.0365 0.259835 20.8238C-0.0866117 22.0979 -0.0866117 24.5513 0.259835 25.8254C1.27495 29.558 4.22669 32.3395 7.99859 33.118C8.896 33.3033 9.57367 33.3251 14.4749 33.3264L19.949 33.3279V23.3246V13.3213L14.4749 13.3313C10.3274 13.3389 8.79452 13.3787 8.14887 13.4955ZM53.5155 23.3246V29.1149L53.9963 28.7842C54.2608 28.6022 54.7484 28.1602 55.08 27.8019C57.4133 25.2809 57.4133 21.3683 55.08 18.8472C54.7484 18.489 54.2608 18.047 53.9963 17.865L53.5155 17.5342V23.3246ZM8.66392 36.8417C8.69293 37.0181 8.77274 37.5376 8.84154 37.9961C9.35737 41.4366 11.1188 47.8929 11.9089 49.2382C12.0211 49.4294 12.2873 49.679 12.5003 49.7929C12.8601 49.9852 13.212 50 17.4481 50C21.6756 50 22.037 49.985 22.396 49.7939C22.852 49.5512 23.2789 48.8659 23.2816 48.3722C23.2827 48.1515 22.8734 47.188 22.172 45.7603C21.5607 44.516 21.0605 43.4604 21.0605 43.4145C21.0604 43.3686 21.9132 43.3311 22.9555 43.3311C25.0297 43.3311 25.2495 43.2795 25.7615 42.6709C26.2296 42.1147 26.2328 41.8074 25.7876 40.1687C25.5651 39.3495 25.3221 38.3131 25.2474 37.8654L25.1115 37.0513L24.3364 36.9219C23.91 36.8507 23.1486 36.7573 22.6443 36.7142C21.9044 36.6511 21.7273 36.6654 21.7273 36.7881C21.7274 37.0403 22.161 39.6168 22.2366 39.8137C22.2993 39.977 22.1708 39.9967 21.0406 39.9967H19.7745L19.3607 38.524C19.133 37.714 18.9473 36.9637 18.9477 36.8568C18.9485 36.6746 18.6533 36.6623 14.296 36.6623C11.7369 36.6623 9.41106 36.6305 9.1273 36.5916L8.61146 36.5209L8.66392 36.8417Z"/>
</svg>
