<svg width="51" height="50" viewBox="0 0 51 50" fill="white" xmlns="http://www.w3.org/2000/svg">
<path class="logo" fill-rule="evenodd" clip-rule="evenodd" d="M31.2228 0.197384C30.5805 0.536476 30.4646 0.916014 30.4646 2.67859V4.19674H28.9953C27.7155 4.19674 27.4762 4.22214 27.1405 4.3934C26.4805 4.73005 26.3615 5.10275 26.3615 6.83054V8.29985H24.8922C23.1644 8.29985 22.7917 8.41893 22.455 9.07885C22.2735 9.43475 22.2586 9.64684 22.2627 11.8373C22.2658 13.4687 22.304 14.2925 22.3849 14.4737C22.4496 14.6184 23.0028 15.2472 23.614 15.8709L24.7255 17.0048L26.1052 15.6483C27.6033 14.1755 27.9769 13.9128 29.1141 13.5328C30.4117 13.0991 32.1589 13.2097 33.4005 13.804L33.8708 14.029L37.1976 10.7004L40.5243 7.37176L40.4635 6.862C40.4173 6.47396 40.4556 6.18782 40.624 5.66419C40.7791 5.18197 40.83 4.84112 40.7943 4.5247C40.7453 4.08947 40.675 4.00429 38.8523 2.17117C37.8122 1.12508 36.8197 0.207739 36.6468 0.132516C36.405 0.0274959 35.7849 -0.00308204 33.9602 0.000239523C31.7918 0.00424494 31.5567 0.0211458 31.2228 0.197384ZM44.2881 9.38395C43.9278 9.52355 43.6458 9.56116 43.2135 9.52756L42.6273 9.48193L39.2988 12.8051L35.9702 16.1283L36.1951 16.5986C36.7183 17.6916 36.8754 19.3613 36.5682 20.5642C36.2603 21.7704 35.9009 22.3145 34.4029 23.8417L33.0039 25.2682L34.1304 26.3823C34.7501 26.9952 35.3767 27.5495 35.5229 27.6142C35.7058 27.6952 36.5368 27.7333 38.1839 27.7364C40.3334 27.7403 40.6134 27.7222 40.9161 27.5599C41.593 27.1969 41.6468 27.0338 41.6814 25.2427L41.7125 23.6377H43.1751C44.8957 23.6377 45.2694 23.5179 45.6057 22.8586C45.777 22.5229 45.8024 22.2836 45.8024 21.0038V19.5345H47.3205C49.1021 19.5345 49.4675 19.42 49.8065 18.7555C49.9874 18.4007 50.0032 18.1825 50.0032 16.0184C50.0032 14.2189 49.9711 13.5929 49.8666 13.3523C49.7914 13.1794 48.8708 12.1837 47.8207 11.1396L45.9115 9.24122L45.344 9.21806C44.968 9.20263 44.6119 9.25861 44.2881 9.38395ZM30.1667 16.243C29.9222 16.3118 29.5705 16.4633 29.3852 16.5793C29.1997 16.6955 25.6958 20.1448 21.5986 24.2444L14.1492 31.6984L16.2267 33.7742L18.3041 35.8499L25.8453 28.3028C34.1946 19.9472 33.8155 20.3849 33.8198 19.0949C33.8227 18.2437 33.5532 17.5805 32.9745 17.014C32.2384 16.2934 31.0984 15.9804 30.1667 16.243ZM11.3164 34.3002C9.6454 35.6669 7.50993 36.9298 4.55266 38.3003C2.60867 39.2012 2.55914 39.2317 1.78717 40.0003C0.888979 40.8944 0.466652 41.6146 0.177285 42.746C-0.713968 46.2311 1.8619 49.7281 5.50996 49.9857C7.16693 50.1025 8.71536 49.5035 9.96017 48.2642C10.5994 47.6278 10.7759 47.3724 11.2142 46.449C13.2901 42.075 14.2352 40.4707 16.0509 38.2388L16.2926 37.9416L14.1707 35.8213L12.0488 33.7011L11.3164 34.3002Z" />
</svg>
