<svg width="54" height="50" viewBox="0 0 54 50" fill="none" xmlns="http://www.w3.org/2000/svg">
<path fill-rule="evenodd" clip-rule="evenodd" d="M7.05844 0.214792C6.82042 0.340521 6.5875 0.580104 6.45948 0.831042C6.25563 1.23073 6.25 1.43417 6.25 8.43333V15.625H17.1875H28.125V8.43333C28.125 1.43125 28.1195 1.23083 27.9153 0.830625C27.7803 0.565938 27.5591 0.344688 27.2944 0.209688C26.9161 0.0167709 26.6833 0 24.3792 0H21.875V4.06667C21.875 7.93677 21.8649 8.15312 21.6653 8.54437C21.5303 8.80906 21.3091 9.03031 21.0444 9.16531C20.6569 9.36302 20.4354 9.375 17.1798 9.375C13.795 9.375 13.718 9.37031 13.3107 9.14146C12.5016 8.68667 12.5 8.67708 12.5 4.06667V0L9.97396 0.0045834C7.66521 0.00885423 7.41438 0.026875 7.05844 0.214792ZM15.625 3.125V6.25H17.1875H18.75V3.125V0H17.1875H15.625V3.125ZM0.808438 18.9648C0.570417 19.0905 0.3375 19.3301 0.209479 19.581C0.00260416 19.9866 0 20.171 0 34.375C0 48.5848 0.00250001 48.7632 0.209688 49.1694C0.344688 49.4341 0.565938 49.6553 0.830625 49.7903C1.2375 49.9979 1.41031 50 17.8083 50H34.375V34.9958C34.375 20.1639 34.3726 19.987 34.1653 19.5806C34.0303 19.3159 33.8091 19.0947 33.5444 18.9597C33.1474 18.7572 32.9403 18.75 27.5042 18.75H21.875V22.8167C21.875 26.6868 21.8649 26.9031 21.6653 27.2944C21.5303 27.5591 21.3091 27.7803 21.0444 27.9153C20.6569 28.113 20.4354 28.125 17.1798 28.125C13.795 28.125 13.718 28.1203 13.3107 27.8915C12.5016 27.4367 12.5 27.4271 12.5 22.8167V18.75L6.84896 18.7546C1.42844 18.7591 1.18198 18.7676 0.808438 18.9648ZM15.625 21.875V25H17.1875H18.75V21.875V18.75H17.1875H15.625V21.875ZM37.5 39.0625V50H44.7958C51.9023 50 52.1023 49.9946 52.5027 49.7903C52.7674 49.6553 52.9886 49.4341 53.1236 49.1694C53.3294 48.7661 53.3333 48.5744 53.3333 39.0625C53.3333 29.5506 53.3294 29.3589 53.1236 28.9556C52.8018 28.3248 52.3146 28.125 51.0979 28.125H50.1042V32.1917C50.1042 36.0618 50.0941 36.2781 49.8945 36.6694C49.7595 36.9341 49.5382 37.1553 49.2735 37.2903C48.886 37.488 48.6646 37.5 45.409 37.5C42.0242 37.5 41.9472 37.4953 41.5399 37.2665C40.7307 36.8117 40.7292 36.8021 40.7292 32.1917V28.125H39.1146H37.5V39.0625ZM43.8542 31.25V34.375H45.4167H46.9792V31.25V28.125H45.4167H43.8542V31.25ZM14.7396 40.8333C15.2321 41.0718 15.625 41.6693 15.625 42.1798C15.625 42.7037 15.2591 43.3032 14.7944 43.5403C14.4072 43.7378 14.1853 43.75 10.9746 43.75C7.77865 43.75 7.53885 43.737 7.13542 43.5417C6.02958 43.0064 5.96375 41.5167 7.01781 40.8848L7.44792 40.627L10.8785 40.6259C14.0975 40.6251 14.3358 40.6378 14.7396 40.8333Z" fill="white"/>
</svg>
