<svg width="57" fill="none" height="50" viewBox="0 0 57 50"  xmlns="http://www.w3.org/2000/svg">
<path class="logo" fill-rule="evenodd" clip-rule="evenodd" d="M10.619 0.110246C9.25373 0.460171 7.8915 1.54797 7.3223 2.74286C6.87097 3.69022 6.78279 4.3546 6.78279 6.80686V9.08087H9.54616C12.234 9.08087 12.3199 9.08777 12.6874 9.33328C13.7028 10.0116 13.677 11.352 12.6334 12.1318C12.346 12.3466 12.1513 12.3633 9.54583 12.396L6.765 12.4309L6.80703 15.009C6.85418 17.9042 6.93512 18.2728 7.76396 19.3687C8.72067 20.6337 9.96458 21.3062 11.5085 21.3933C12.3455 21.4405 12.6511 21.38 16.6767 20.3701C19.4707 19.6693 21.1414 19.1955 21.4918 19.0049C22.1734 18.6338 22.7401 18.007 23.1132 17.2113L23.4062 16.5864V10.6932V4.79993L23.1093 4.16658C22.7511 3.40257 22.0305 2.6549 21.3214 2.31165C21.0342 2.17255 19.009 1.60958 16.8211 1.0605C12.5989 0.000942821 11.6265 -0.148056 10.619 0.110246ZM26.7976 10.751V14.645L37.1664 14.615C46.6544 14.5875 47.5643 14.569 47.8778 14.3971C48.2158 14.2119 49.6163 12.4554 49.9676 11.7761C50.1104 11.5 50.1482 11.0827 50.1479 9.78139C50.1478 7.91946 50.0421 7.55085 49.3812 7.10942C49.0249 6.87146 48.8941 6.85701 47.0904 6.85701C45.2922 6.85701 45.1547 6.87202 44.7995 7.10731C44.4354 7.34859 44.064 7.95093 43.6658 8.94611L43.4783 9.41445H41.2527H39.0271L38.8396 8.94611C38.4414 7.95093 38.07 7.34859 37.7059 7.10731C37.3566 6.87591 37.2034 6.85701 35.6766 6.85701H34.0251V8.30697C34.0251 10.0294 33.866 10.4874 33.1385 10.8585C32.5688 11.1491 32.1038 11.1416 31.5548 10.8331C30.8319 10.4268 30.6893 10.0108 30.6893 8.30697V6.85701H28.7435H26.7976V10.751ZM0.862971 27.9853C0.612897 28.1206 0.358154 28.3848 0.22361 28.6484C0.0179021 29.0516 0 29.3014 0 31.7599V34.4329H3.73431H7.46874L7.43149 32.5705C7.3968 30.8316 7.37489 30.6665 7.10136 30.0831C6.68939 29.2045 6.10106 28.6013 5.24476 28.1794C4.52857 27.8266 4.46608 27.8162 2.89392 27.7887C1.45163 27.7635 1.23425 27.7845 0.862971 27.9853ZM17.6264 27.8779C15.7166 28.1774 14.3617 28.7018 12.185 29.9841L10.7857 30.8084V38.7716V46.7347L16.2191 48.3673L21.6524 50H30.6041C40.4328 50 40.5619 49.9927 42.3973 49.3285C43.6951 48.8589 45.0394 48.0001 46.0351 47.0046C47.154 45.886 56.1131 34.4601 56.5418 33.6053C56.8298 33.0309 56.8754 32.8176 56.8754 32.0441C56.8754 31.2567 56.8312 31.0584 56.5116 30.4094C56.0951 29.5632 55.5923 29.075 54.7122 28.6621C54.1972 28.4206 53.9397 28.3734 53.1504 28.3757C51.755 28.3797 51.4889 28.5446 48.9428 30.9833C47.7601 32.1161 46.3181 33.4934 45.7385 34.0438C44.6861 35.0431 44.6845 35.0456 44.5268 35.8229C44.0226 38.3095 41.9232 40.4112 39.418 40.9373C38.7947 41.0682 37.5464 41.1011 33.1507 41.1026C27.6686 41.1045 27.6612 41.1042 27.2182 40.8552C26.7231 40.5769 26.3528 39.97 26.3528 39.4366C26.3528 38.9424 26.7183 38.3039 27.1484 38.0467C27.5038 37.8342 27.7721 37.8219 33.1912 37.7687L38.862 37.7131L39.4133 37.4398C40.6588 36.8224 41.3037 35.7967 41.3037 34.4329C41.3037 33.0614 40.6866 32.0487 39.4938 31.463L38.862 31.1527L33.8583 31.0971L28.8547 31.0415L26.464 29.8538C23.9825 28.6208 23.2302 28.3215 21.8745 28.0279C20.9032 27.8176 18.5423 27.7342 17.6264 27.8779ZM0 43.2217C0 48.4672 0.00856188 48.6913 0.223832 49.1133C0.371274 49.4023 0.604335 49.6322 0.906448 49.7862C1.32142 49.9979 1.51467 50.0166 2.93706 49.9823C4.45062 49.9459 4.53624 49.931 5.24476 49.5819C6.10106 49.16 6.68939 48.5569 7.10136 47.6783L7.39435 47.0534L7.42671 42.4111L7.45918 37.7687H3.72953H0V43.2217Z"/>
</svg>
